<?xml version="1.0" encoding="UTF-8"?><!DOCTYPE svg PUBLIC "-//W3C//DTD SVG 1.1//EN" "http://www.w3.org/Graphics/SVG/1.1/DTD/svg11.dtd"><svg xmlns="http://www.w3.org/2000/svg"><symbol id="box-arrow-left" viewBox="0 0 500 500"><path d="M17.514 9.994L10 17.513v465.973L17.514 491h465.969l7.515-7.51V17.513l-7.515-7.519H17.514zm458.453 465.973H25.029V25.031h450.938v450.936zm-172.859-142.79V167.838l-13.4-6.189L167.826 244.3v12.41l121.881 82.665zm-15.032-14.285L188.608 250.5l99.468-68.389v136.781z"/></symbol><symbol id="box-arrow-right" viewBox="0 0 500 500"><path d="M482.486 9.994L490 17.513v465.973L482.486 491H16.518L9 483.486V17.513l7.516-7.519h465.97zM24.033 475.967h450.938V25.031H24.033v450.936zm172.859-142.79V167.838l13.4-6.189L332.174 244.3v12.41l-121.881 82.665zm15.032-14.285l99.468-68.392-99.468-68.389v136.781z"/></symbol><symbol id="building" viewBox="0 0 500 500"><path d="M476.216 180.448a7.358 7.358 0 0 0 7.783-7.8v-62.26a7.356 7.356 0 0 0-7.783-7.781h-54.483V79.253a7.351 7.351 0 0 0-7.783-7.775h-15.567V16.994h-15.567v54.484h-15.567a7.351 7.351 0 0 0-7.782 7.775v23.355h-54.484a7.356 7.356 0 0 0-7.784 7.781v62.26a7.358 7.358 0 0 0 7.784 7.8h23.35V250.5H343.9v-31.141h38.916v38.91h15.567v-38.91H437.3V468.44h-38.917V281.624a7.353 7.353 0 0 0-7.784-7.781H242.716V48.123a7.361 7.361 0 0 0-7.783-7.787H55.916a7.361 7.361 0 0 0-7.783 7.787V468.44H17V484h467v-15.56h-31.134V180.448h23.35zm-140.1 287.992H63.7V87.046h108.965V71.478H63.7V55.91h163.449v381.382h15.567V289.418h140.1V468.44h-46.7zm38.916-381.394h31.134v15.562h-31.134V87.046zm-62.266 31.124h155.666v46.71H312.766v-46.71zM437.3 203.791h-93.4v-23.343h93.4v23.343zm-101.184-70.053h15.566V149.3h-15.566v-15.562zm23.351 0h15.565V149.3h-15.565v-15.562zm23.349 0h15.567V149.3h-15.567v-15.562zm23.35 0h15.567V149.3h-15.567v-15.562zm23.351 0h15.565V149.3h-15.565v-15.562zM94.832 157.093h31.134a7.356 7.356 0 0 0 7.783-7.793v-31.13a7.349 7.349 0 0 0-7.783-7.781H94.832a7.349 7.349 0 0 0-7.783 7.781v31.13a7.356 7.356 0 0 0 7.783 7.793zm7.784-31.13h15.567v15.568h-15.567v-15.568zm93.4-15.574h-31.133a7.349 7.349 0 0 0-7.783 7.781v31.13a7.356 7.356 0 0 0 7.783 7.793h31.133a7.356 7.356 0 0 0 7.784-7.793v-31.13a7.349 7.349 0 0 0-7.784-7.781zm-7.784 31.142h-15.567v-15.568h15.567v15.568zm-93.4 77.828h31.134a7.348 7.348 0 0 0 7.783-7.775v-31.136a7.363 7.363 0 0 0-7.783-7.8H94.832a7.364 7.364 0 0 0-7.783 7.8v31.136a7.348 7.348 0 0 0 7.783 7.775zm7.784-31.124h15.567v15.556h-15.567v-15.556zm93.4-15.586h-31.133a7.363 7.363 0 0 0-7.783 7.8v31.136a7.348 7.348 0 0 0 7.783 7.775h31.133a7.348 7.348 0 0 0 7.783-7.775v-31.137a7.363 7.363 0 0 0-7.783-7.799zm-7.784 31.142h-15.567v-15.556h15.567v15.556zm-93.4 77.833h31.134a7.359 7.359 0 0 0 7.783-7.781v-31.135a7.345 7.345 0 0 0-7.783-7.775H94.832a7.345 7.345 0 0 0-7.783 7.775v31.135a7.359 7.359 0 0 0 7.783 7.781zm7.784-31.123h15.567v15.568h-15.567V250.5zm93.4-15.568h-31.133a7.345 7.345 0 0 0-7.783 7.775v31.135a7.359 7.359 0 0 0 7.783 7.781h31.133a7.359 7.359 0 0 0 7.783-7.781v-31.135a7.345 7.345 0 0 0-7.783-7.775zm-7.784 31.136h-15.567V250.5h15.567v15.568zm-93.4 77.831h31.134a7.354 7.354 0 0 0 7.783-7.787v-31.127a7.353 7.353 0 0 0-7.783-7.794H94.832a7.353 7.353 0 0 0-7.783 7.794v31.123a7.354 7.354 0 0 0 7.783 7.791zm7.784-31.13h15.567v15.562h-15.567v-15.566zm93.4-15.574h-31.133a7.353 7.353 0 0 0-7.783 7.794v31.123a7.354 7.354 0 0 0 7.783 7.787h31.133a7.354 7.354 0 0 0 7.783-7.787v-31.127a7.353 7.353 0 0 0-7.783-7.794zm-7.784 31.136h-15.567v-15.566h15.567v15.562zm-62.266 77.834a7.356 7.356 0 0 0 7.783-7.793v-31.13a7.356 7.356 0 0 0-7.783-7.781H94.832a7.356 7.356 0 0 0-7.783 7.781v31.13a7.356 7.356 0 0 0 7.783 7.793h31.134zm-23.35-31.142h15.567v15.574h-15.567V375.02zm93.4-15.562h-31.133a7.356 7.356 0 0 0-7.783 7.781v31.13a7.356 7.356 0 0 0 7.783 7.793h31.133a7.356 7.356 0 0 0 7.783-7.793v-31.13a7.356 7.356 0 0 0-7.783-7.785zm-7.784 31.136h-15.567V375.02h15.567v15.574zm-93.4 38.929h101.184v15.556H94.832v-15.56zm163.45-124.537h23.35v15.561h-23.35v-15.565zm38.917 0h23.35v15.561H297.2v-15.565zm38.917 0h23.351v15.561h-23.351v-15.565zm-77.834 31.123h23.35v15.562h-23.35v-15.566zm38.917 0h23.35v15.562H297.2v-15.566zm38.917 0h23.351v15.562h-23.351v-15.566zm-77.834 31.13h23.35v15.574h-23.35v-15.578zm38.917 0h23.35v15.574H297.2v-15.578zm38.917 0h23.351v15.574h-23.351v-15.578zm-77.834 31.13h23.35v15.58h-23.35v-15.58zm38.917 0h23.35v15.58H297.2v-15.58zm38.917 0h23.351v15.58h-23.351v-15.58zm-77.834 31.154h23.35v15.556h-23.35v-15.56zm38.917 0h23.35v15.556H297.2v-15.56zm38.917 0h23.351v15.556h-23.351v-15.56z"/></symbol><symbol id="calendar-two" viewBox="0 0 500 500"><path d="M341.6 69.945V43h-33.811v26.945H193.206V43H159.4v26.945H11V458h479V69.945H341.6zm-182.2 32.337v26.948h33.811v-26.948h114.581v21.558H341.6v-21.558h114.586v53.9H44.809v-53.9H159.4zM44.809 425.658V188.514h411.377v237.144H44.809zm76.079-97.01h56.352v53.894h-56.352v-53.894zm101.434 0h56.352v53.894h-56.352v-53.894zm101.433 0h56.356v53.894h-56.356v-53.894zM222.322 231.63h56.352v53.9h-56.352v-53.9zm101.433 0h56.356v53.9h-56.356v-53.9zm-202.867 0h56.352v53.9h-56.352v-53.9z"/></symbol><symbol id="calendar" viewBox="0 0 500 500"><path d="M459.994 107.206h-94.653V77.438c0-3.564-3.346-6.446-7.485-6.446s-7.482 2.882-7.482 6.447v29.768h-89.813V77.438c0-3.564-3.349-6.446-7.485-6.446s-7.485 2.882-7.485 6.447v29.768h-89.81V77.438c0-3.564-3.35-6.446-7.485-6.446s-7.486 2.882-7.486 6.447v29.768H41c-16.571 0-30 11.578-30 25.849v271.055c0 14.322 13.433 25.9 30 25.9h418.994c16.572 0 30-11.578 30-25.9V133.055c.006-14.271-13.428-25.849-30-25.849zm15.037 296.9c0 7.155-6.746 12.969-15.037 12.969H41c-8.288 0-15.034-5.814-15.034-12.969V133.055C25.968 125.9 32.713 120.1 41 120.1h99.81V142c0 3.578 3.35 6.46 7.486 6.46s7.485-2.882 7.485-6.46v-21.9h89.81V142c0 3.578 3.349 6.46 7.485 6.46s7.485-2.882 7.485-6.46v-21.9h89.813V142c0 3.578 3.346 6.46 7.482 6.46s7.485-2.882 7.485-6.46v-21.9h94.653c8.291 0 15.037 5.8 15.037 12.956v271.055zM148.3 213.03c-16.533 0-29.939 11.553-29.939 25.849 0 14.245 13.406 25.811 29.939 25.811s29.938-11.566 29.938-25.811c-.004-14.296-13.41-25.849-29.938-25.849zm0 38.729c-8.256 0-14.968-5.789-14.968-12.88 0-7.129 6.712-12.931 14.968-12.931s14.967 5.8 14.967 12.931c-.004 7.091-6.719 12.88-14.967 12.88zm104.78-38.729c-16.533 0-29.939 11.553-29.939 25.849 0 14.245 13.406 25.811 29.939 25.811s29.938-11.566 29.938-25.811c-.004-14.296-13.407-25.849-29.942-25.849zm0 38.729c-8.253 0-14.968-5.789-14.968-12.88 0-7.129 6.715-12.931 14.968-12.931s14.968 5.8 14.968 12.931c-.004 7.091-6.719 12.88-14.972 12.88zm104.78-38.729c-16.533 0-29.935 11.553-29.935 25.849 0 14.245 13.4 25.811 29.935 25.811s29.94-11.566 29.94-25.811c0-14.296-13.408-25.849-29.944-25.849zm0 38.729c-8.253 0-14.968-5.789-14.968-12.88 0-7.129 6.715-12.931 14.968-12.931s14.971 5.8 14.971 12.931c-.004 7.091-6.719 12.88-14.975 12.88zM148.3 290.5c-16.533 0-29.939 11.553-29.939 25.824s13.406 25.824 29.939 25.824 29.938-11.553 29.938-25.824S164.828 290.5 148.3 290.5zm0 38.742c-8.256 0-14.968-5.789-14.968-12.918 0-7.1 6.712-12.9 14.968-12.9s14.967 5.8 14.967 12.9c-.004 7.13-6.719 12.919-14.967 12.919zM253.076 290.5c-16.533 0-29.939 11.553-29.939 25.824s13.406 25.824 29.939 25.824 29.938-11.553 29.938-25.824-13.403-25.824-29.938-25.824zm0 38.742c-8.253 0-14.968-5.789-14.968-12.918 0-7.1 6.715-12.9 14.968-12.9s14.968 5.8 14.968 12.9c0 7.13-6.715 12.919-14.968 12.919zm104.78-38.742c-16.533 0-29.935 11.553-29.935 25.824s13.4 25.824 29.935 25.824S387.8 330.6 387.8 316.325 374.392 290.5 357.856 290.5zm0 38.742c-8.253 0-14.968-5.789-14.968-12.918 0-7.1 6.715-12.9 14.968-12.9s14.971 5.8 14.971 12.9c0 7.13-6.715 12.919-14.971 12.919z"/></symbol><symbol id="camera" viewBox="0 0 500 500"><path d="M448.248 140.748h-67.056l-31.467-75.734H150.274l-31.467 75.734H108.4V102.89H61.2v37.858h-9.449C30.928 140.748 14 157.026 14 177.062v222.344c0 20.173 17.055 36.587 38.02 36.587h395.96c20.965 0 38.02-16.414 38.02-36.587V177.062c0-20.036-16.929-36.314-37.752-36.314zm-371.315-22.72h15.733v22.72H76.933v-22.72zm393.333 281.378c0 11.826-10 21.449-22.286 21.449H52.019c-12.287 0-22.285-9.629-22.285-21.449V177.062c0-11.677 9.88-21.188 22.018-21.188h77.708l31.467-75.71h178.146l31.467 75.71h77.708c12.138 0 22.018 9.511 22.018 21.188v222.344zM250 133.155c-78.076 0-141.6 61.147-141.6 136.275S171.923 405.705 250 405.705 391.6 344.57 391.6 269.43 328.076 133.155 250 133.155zm0 257.411c-69.4 0-125.866-54.349-125.866-121.136S180.6 148.3 250 148.3s125.867 54.35 125.867 121.131S319.4 390.566 250 390.566zm0-211.978c-52.053 0-94.4 40.737-94.4 90.842s42.346 90.848 94.4 90.848 94.4-40.749 94.4-90.848-42.347-90.842-94.4-90.842zm0 166.557c-43.376 0-78.666-33.963-78.666-75.715 0-41.735 35.29-75.7 78.666-75.7s78.667 33.969 78.667 75.7c-.001 41.752-35.291 75.715-78.667 75.715zm173.066-174.127c-17.354 0-31.467 13.583-31.467 30.289s14.113 30.277 31.467 30.277 31.467-13.584 31.467-30.277-14.113-30.289-31.467-30.289zm0 45.421c-8.678 0-15.733-6.779-15.733-15.132s7.055-15.156 15.733-15.156 15.734 6.8 15.734 15.156-7.057 15.132-15.734 15.132z"/></symbol><symbol id="clock" viewBox="0 0 500 500"><path d="M250.5 483C122.314 483 18 378.7 18 250.524 18 122.307 122.309 18.01 250.5 18.01c128.207 0 232.5 104.3 232.5 232.514C483 378.7 378.708 483 250.5 483zm0-434.022C139.4 48.979 49 139.369 49 250.525c0 111.1 90.393 201.508 201.5 201.508S452 361.623 452 250.525c0-111.156-90.382-201.546-201.5-201.546zm115.13 215.7H235.012V101.9a15.5 15.5 0 1 1 30.99 0v131.771h99.629a15.5 15.5 0 0 1 0 31.006z"/></symbol><symbol id="comment" viewBox="0 0 500 500"><path d="M105.6 156.914h120.75c4.449 0 8.048-3.236 8.048-7.194 0-3.988-3.6-7.194-8.048-7.194H105.6c-4.452 0-8.048 3.206-8.048 7.194-.002 3.958 3.594 7.194 8.048 7.194zm273.7 43.206H105.6c-4.452 0-8.048 3.207-8.048 7.194s3.6 7.18 8.048 7.18h273.7c4.453 0 8.049-3.207 8.049-7.18s-3.598-7.194-8.049-7.194zm0 57.566H105.6c-4.452 0-8.048 3.249-8.048 7.194 0 3.973 3.6 7.208 8.048 7.208h273.7c4.453 0 8.049-3.235 8.049-7.208-.002-3.945-3.598-7.194-8.049-7.194zm64.4-208.7H57.3C31.118 48.99 9 68.756 9 92.168v237.514c0 23.384 22.119 43.164 48.3 43.164h229.889l78.1 76.792a8.438 8.438 0 0 0 5.958 2.356 9.188 9.188 0 0 0 2.9-.469 7.246 7.246 0 0 0 5.152-6.711v-71.968h64.4c26.176 0 48.3-19.78 48.3-43.164V92.168C492 68.756 469.876 48.99 443.7 48.99zm32.2 280.692c0 15.552-14.747 28.762-32.2 28.762h-72.45c-4.453 0-8.052 3.235-8.052 7.18v60.588l-66.493-65.427-40.1-41.66a8.773 8.773 0 0 0-11.35-.766 6.667 6.667 0 0 0-.844 10.145l28.8 29.94H57.3c-17.451 0-32.2-13.21-32.2-28.762V92.168c0-15.636 14.746-28.818 32.2-28.818h386.4c17.451 0 32.2 13.182 32.2 28.818v237.514z"/></symbol><symbol id="email" viewBox="0 0 500 500"><path d="M449.879 65.994H50.117A46.113 46.113 0 0 0 4 112.1v276.784a46.106 46.106 0 0 0 46.121 46.123h399.758A46.107 46.107 0 0 0 496 388.884V112.1a46.114 46.114 0 0 0-46.121-46.106zm30.746 316.069L335.2 236.631l145.425-92.716v238.148zM50.117 81.373h399.762a30.773 30.773 0 0 1 30.746 30.727v13.626L268.967 260.618a33.9 33.9 0 0 1-37.277-.552L19.371 115.738V112.1a30.775 30.775 0 0 1 30.746-30.727zm-30.746 52.944l147.473 100.235L19.371 382.063V134.317zm430.508 285.326H50.117a30.8 30.8 0 0 1-28.255-18.66L179.59 243.225l43.468 29.541a49.165 49.165 0 0 0 54.158.812l44.91-28.632 156.011 156.037a30.81 30.81 0 0 1-28.258 18.66z"/></symbol><symbol id="location" viewBox="0 0 500 500"><path class="cls-1" d="M250 7C160.672 7 88 77.555 88 164.292c0 77.582 55.409 179.254 101.894 250.872a10.348 10.348 0 0 0 14.049 3.092 9.707 9.707 0 0 0 3.186-13.627C125.5 278.832 108.365 204.5 108.365 164.291 108.365 88.468 171.9 26.786 250 26.786s141.631 61.682 141.631 137.505c0 123.145-148.2 310.892-149.693 312.762a9.7 9.7 0 0 0 1.835 13.872 10.384 10.384 0 0 0 14.285-1.785c6.288-7.895 153.947-194.958 153.947-324.849C412 77.554 339.326 7 250 7zm0 107.135a9.892 9.892 0 1 0 0-19.775c-39.717 0-72.029 31.373-72.029 69.932s32.307 69.955 72.029 69.955 72.03-31.385 72.03-69.956a67.984 67.984 0 0 0-14.63-42.238 10.356 10.356 0 0 0-14.272-1.894 9.686 9.686 0 0 0-1.952 13.847 48.725 48.725 0 0 1 10.481 30.285c0 27.682-23.173 50.169-51.658 50.169s-51.658-22.487-51.658-50.169c-.004-27.645 23.172-50.157 51.659-50.157z"/></symbol><symbol id="microphone-two" viewBox="0 0 500 500"><path d="M372.547 212.827a7.364 7.364 0 0 0-7.451 7.263v31.47c0 60.956-51.632 110.611-115.1 110.611S134.9 312.516 134.9 251.56v-31.47a7.453 7.453 0 0 0-14.9 0v31.47c0 66.5 54.238 120.89 122.349 124.745a5.11 5.11 0 0 0-.119.562v97.142h-76.488a7.42 7.42 0 1 0 0 14.834h83.514c.255.023.476.15.741.15s.484-.127.742-.15h83.511a7.42 7.42 0 1 0 0-14.834h-76.482v-97.142a5.11 5.11 0 0 0-.119-.562C325.76 372.45 380 318.057 380 251.56v-31.47a7.362 7.362 0 0 0-7.453-7.263zM250 324.631c46.531 0 84.253-36.8 84.253-82.135V93.176c0-45.364-37.722-82.169-84.253-82.169s-84.255 36.805-84.255 82.169V242.5c-.003 45.326 37.718 82.131 84.255 82.131zM181.061 93.176c0-37.058 30.925-67.22 68.936-67.22s68.934 30.162 68.934 67.22v15.213h-61.274a7.173 7.173 0 1 0 0 14.341h61.274v30.45h-61.274a7.173 7.173 0 1 0 0 14.341h61.274v30.449h-61.274a7.184 7.184 0 1 0 0 14.364h61.274V242.5c0 37.047-30.925 67.175-68.934 67.175s-68.936-30.128-68.936-67.175V93.176z"/></symbol><symbol id="microphone" viewBox="0 0 500 500"><path d="M376.593 242.281a8.315 8.315 0 0 0-8.406 8.214v49.357c0 63.49-52.792 115.135-117.688 115.135s-117.687-51.645-117.687-115.135V250.5a8.408 8.408 0 0 0-16.812 0v49.357c0 69.771 55.85 126.893 126.094 131.159v41.553h-42.032a8.222 8.222 0 1 0 0 16.439h100.875a8.222 8.222 0 1 0 0-16.439h-42.031v-41.558C329.148 426.745 385 369.618 385 299.852V250.5a8.315 8.315 0 0 0-8.407-8.219zM250.5 390.307c50.984 0 92.469-40.584 92.469-90.455V102.464C342.968 52.593 301.483 12 250.5 12s-92.469 40.589-92.469 90.46v197.392c-.001 49.871 41.484 90.455 92.469 90.455zM195.6 51.69a8.212 8.212 0 0 0 4.464 1.429 8.313 8.313 0 0 0 8.407-8.22 7.908 7.908 0 0 0-.791-3.384 76.728 76.728 0 0 1 85.642 0 7.921 7.921 0 0 0-.789 3.384 8.312 8.312 0 0 0 8.406 8.22 8.209 8.209 0 0 0 4.461-1.429 74.737 74.737 0 0 1 12.476 17.26c-.018.23-.127.411-.127.619a8.015 8.015 0 0 0 3.295 6.369 72.078 72.078 0 0 1 5.112 26.526v8.225a8.227 8.227 0 1 0 0 16.451v32.9a8.222 8.222 0 1 0 0 16.44v32.906a8.222 8.222 0 1 0 0 16.439v32.9a8.225 8.225 0 1 0 0 16.445v24.681a71.836 71.836 0 0 1-.513 8.329 8.234 8.234 0 0 0-7.894 8.121 8.146 8.146 0 0 0 4.414 7.108 74.821 74.821 0 0 1-38.131 42.691c.008-.159.092-.285.092-.466a8.408 8.408 0 0 0-16.812 0 8.15 8.15 0 0 0 2.395 5.739 74.953 74.953 0 0 1-38.416 0 8.147 8.147 0 0 0 2.4-5.739 8.409 8.409 0 0 0-16.813 0c0 .181.084.307.092.466a74.81 74.81 0 0 1-38.13-42.687 8.145 8.145 0 0 0 4.413-7.108 8.233 8.233 0 0 0-7.893-8.121 72.058 72.058 0 0 1-.512-8.329v-24.684a8.224 8.224 0 1 0 0-16.445v-32.9a8.222 8.222 0 1 0 0-16.439V176.48a8.222 8.222 0 1 0 0-16.44v-32.9a8.227 8.227 0 1 0 0-16.451v-8.225a72.1 72.1 0 0 1 5.11-26.526 8.012 8.012 0 0 0 3.295-6.369c0-.208-.109-.389-.126-.619A74.679 74.679 0 0 1 195.6 51.69zm54.9-15.016a8.224 8.224 0 1 1-8.405 8.225 8.316 8.316 0 0 1 8.405-8.225zm-25.218 24.67a8.227 8.227 0 1 1-8.407 8.225 8.323 8.323 0 0 1 8.406-8.225zm0 49.345a8.227 8.227 0 1 1-8.407 8.231 8.314 8.314 0 0 1 8.406-8.231zm-25.22-24.669a8.224 8.224 0 1 1-8.407 8.225 8.316 8.316 0 0 1 8.407-8.225zm50.437 0a8.224 8.224 0 1 1-8.405 8.225 8.316 8.316 0 0 1 8.406-8.225zm-50.437 49.346a8.222 8.222 0 1 1-8.407 8.22 8.315 8.315 0 0 1 8.407-8.221zm50.437 0a8.222 8.222 0 1 1-8.405 8.22 8.315 8.315 0 0 1 8.406-8.221zm25.22-74.021a8.227 8.227 0 1 1-8.407 8.225 8.322 8.322 0 0 1 8.407-8.226zm0 49.345a8.227 8.227 0 1 1-8.407 8.231 8.313 8.313 0 0 1 8.407-8.232zm25.218-24.67a8.224 8.224 0 1 1-8.406 8.225 8.315 8.315 0 0 1 8.406-8.225zm0 49.346a8.222 8.222 0 1 1-8.406 8.22 8.314 8.314 0 0 1 8.406-8.221zm-75.656 24.674a8.222 8.222 0 1 1-8.407 8.22 8.319 8.319 0 0 1 8.407-8.22zm0 49.346a8.222 8.222 0 1 1-8.407 8.231 8.31 8.31 0 0 1 8.407-8.231zm-25.219-24.67a8.225 8.225 0 1 1-8.407 8.22 8.318 8.318 0 0 1 8.407-8.22zm50.437 0a8.224 8.224 0 1 1-8.405 8.22 8.318 8.318 0 0 1 8.406-8.22zm-50.437 49.34a8.222 8.222 0 1 1-8.407 8.225 8.316 8.316 0 0 1 8.407-8.225zm50.437 0a8.222 8.222 0 1 1-8.405 8.225 8.316 8.316 0 0 1 8.406-8.225zm25.22-74.016a8.222 8.222 0 1 1-8.407 8.22 8.318 8.318 0 0 1 8.407-8.22zm0 49.346a8.222 8.222 0 1 1-8.407 8.231 8.309 8.309 0 0 1 8.407-8.231zm25.218-24.67a8.225 8.225 0 1 1-8.406 8.22 8.317 8.317 0 0 1 8.406-8.22zm0 49.34a8.222 8.222 0 1 1-8.406 8.225 8.315 8.315 0 0 1 8.406-8.225zm-75.656 24.67a8.225 8.225 0 1 1-8.407 8.22 8.322 8.322 0 0 1 8.407-8.22zm0 49.345a8.23 8.23 0 1 1-8.407 8.231 8.321 8.321 0 0 1 8.407-8.231zM200.062 283.4a8.23 8.23 0 1 1-8.407 8.236 8.325 8.325 0 0 1 8.407-8.236zm50.437 0a8.23 8.23 0 1 1-8.405 8.236 8.325 8.325 0 0 1 8.406-8.236zm-50.437 49.345a8.225 8.225 0 1 1-8.407 8.236 8.325 8.325 0 0 1 8.407-8.24zm50.437 0a8.224 8.224 0 1 1-8.405 8.236 8.325 8.325 0 0 1 8.406-8.24zm25.22-74.015a8.225 8.225 0 1 1-8.407 8.22 8.321 8.321 0 0 1 8.407-8.224zm0 49.345a8.23 8.23 0 1 1-8.407 8.231 8.32 8.32 0 0 1 8.407-8.235zm25.218-24.675a8.23 8.23 0 1 1-8.406 8.236 8.324 8.324 0 0 1 8.406-8.236zm0 49.345a8.225 8.225 0 1 1-8.406 8.236 8.324 8.324 0 0 1 8.406-8.24z"/></symbol><symbol id="phone" viewBox="0 0 500 500"><path d="M398.405 480c-20.265 0-44.736-4.793-71.648-14.349-59-20.967-123.192-62.4-180.753-116.643-57.575-54.284-101.54-114.8-123.8-170.4-20.229-50.56-20.278-92.066-.113-111.064 2.9-2.724 5.846-5.677 8.895-8.7 18.392-18.214 39.18-38.724 66.73-37.826 18.984.742 37.384 11.867 56.217 33.961 55.658 65.239 30.565 88.516 1.523 115.459l-5.128 4.793c-4.751 4.45-13.726 25.216 69.779 103.905 27.256 25.674 50.5 44.515 69.076 55.868 11.695 7.189 32.61 18.014 41.195 9.913l5.159-4.906c28.568-27.328 53.234-50.891 122.409 1.54 23.437 17.729 35.216 35.073 36 52.973 1.13 25.972-20.8 45.6-40.164 62.942-3.194 2.867-6.308 5.648-9.2 8.358C434.571 475.265 418.568 480 398.405 480zM95.751 36.437c-19.575 0-37.251 17.543-52.89 33.063-3.144 3.109-6.193 6.133-9.188 8.971-15.022 14.135-13.5 51.3 3.865 94.691 21.456 53.585 64.093 112.163 120.062 164.922C213.555 390.8 275.668 430.993 332.557 451.2c46.044 16.4 85.469 17.771 100.457 3.651 3-2.824 6.208-5.677 9.517-8.643 16.823-15.062 35.906-32.135 35.07-51.062-.572-13.008-10.63-27.014-29.893-41.633-57.64-43.674-73.761-28.27-100.491-2.71l-5.243 4.977c-12.775 12.067-33.529 9.385-61.7-7.83-19.541-12.009-43.683-31.478-71.726-57.936-69.305-65.3-91.467-105.275-69.778-125.742l5.224-4.893c27.175-25.2 43.572-40.407-2.8-94.734-15.511-18.171-30.351-27.656-44.16-28.212h-1.283z"/></symbol><symbol id="search" viewBox="0 0 500 500"><path d="M487.986 450.335L347.46 309.838a185.217 185.217 0 0 0 37.323-111.427c0-102.815-83.611-186.4-186.4-186.4s-186.4 83.582-186.4 186.4c0 102.784 83.611 186.4 186.4 186.4a185.136 185.136 0 0 0 111.424-37.336l140.528 140.511zM29.74 198.411c0-92.979 75.649-168.656 168.646-168.656s168.646 75.677 168.646 168.656c0 93-75.649 168.61-168.646 168.61S29.74 291.406 29.74 198.411zm297.944 133.945c1.58-1.493 3.133-3.08 4.659-4.636 1.3-1.335 2.7-2.608 3.95-3.96l126.591 126.575-12.559 12.571L323.744 336.3c1.376-1.241 2.598-2.624 3.94-3.944z"/></symbol><symbol id="share" viewBox="0 0 500 500"><path d="M407.877 339.768c-32.7 0-61.226 15.8-76.434 39.259l-161.783-89.8a70.409 70.409 0 0 0 .206-77.145l164.112-86.43c15.724 21.406 42.935 35.577 73.9 35.577 48.671 0 88.128-34.981 88.128-78.122S456.548 4.992 407.877 4.992s-88.127 34.98-88.127 78.121a70.389 70.389 0 0 0 8.136 32.767l-165 86.9c-16.118-18.485-41.355-30.4-69.747-30.4-48.671 0-88.128 34.98-88.128 78.121s39.457 78.114 88.128 78.114c28.251 0 53.376-11.8 69.5-30.122l163.3 90.65a70.122 70.122 0 0 0-6.191 28.738c0 43.141 39.461 78.113 88.132 78.113s88.123-34.972 88.123-78.113-39.455-78.113-88.126-78.113z"/></symbol></svg>