<?xml version="1.0" standalone="no"?>
<!DOCTYPE svg PUBLIC "-//W3C//DTD SVG 20010904//EN"
 "http://www.w3.org/TR/2001/REC-SVG-20010904/DTD/svg10.dtd">
<svg version="1.0" xmlns="http://www.w3.org/2000/svg"
 width="606.000000pt" height="606.000000pt" viewBox="0 0 606.000000 606.000000"
 preserveAspectRatio="xMidYMid meet">
<metadata>
Created by potrace 1.11, written by Peter Selinger 2001-2013
</metadata>
<g transform="translate(0.000000,606.000000) scale(0.100000,-0.100000)"
fill="#000000" stroke="none">
<path d="M2845 6045 c-483 -81 -878 -452 -964 -905 -6 -30 -14 -71 -17 -90
-10 -50 -11 -2669 -2 -2760 60 -579 568 -1032 1158 -1033 164 -1 253 13 400
63 167 55 303 137 431 258 166 157 268 330 334 568 6 23 11 57 23 159 9 72 7
2709 -2 2745 -3 14 -9 45 -12 70 -8 63 -58 210 -100 293 -134 268 -387 488
-668 582 -41 14 -107 32 -148 41 -91 20 -336 25 -433 9z m363 -210 c109 -21
210 -57 298 -107 l72 -40 -5 -39 c-5 -34 -2 -42 31 -75 35 -35 39 -36 88 -32
48 5 53 3 77 -25 55 -64 112 -153 122 -191 6 -23 17 -48 25 -56 43 -49 77
-200 78 -349 1 -98 -1 -114 -15 -116 -35 -6 -69 -38 -79 -75 -16 -59 10 -105
73 -129 l27 -11 0 -205 c0 -181 -2 -205 -16 -205 -44 0 -99 -73 -91 -121 5
-32 37 -68 72 -80 l35 -13 0 -208 c0 -184 -2 -208 -16 -208 -41 0 -81 -39 -91
-90 -8 -47 40 -109 88 -113 18 -1 19 -11 19 -212 0 -201 -1 -211 -19 -212 -54
-4 -99 -72 -85 -127 8 -31 58 -76 85 -76 20 0 20 -7 18 -207 l-2 -207 -39 -18
c-28 -12 -43 -28 -54 -54 -18 -44 -12 -77 22 -111 l25 -25 -42 -86 c-76 -159
-199 -298 -349 -394 -41 -26 -80 -48 -86 -48 -6 0 -14 13 -17 30 -12 57 -95
87 -156 56 -47 -25 -67 -99 -36 -143 14 -20 13 -21 -28 -28 -23 -4 -49 -9 -57
-11 -64 -16 -355 -2 -375 17 -2 2 2 23 8 47 10 36 9 47 -7 76 -31 57 -94 72
-154 36 -21 -13 -35 -31 -39 -50 -3 -17 -11 -30 -17 -30 -20 0 -167 101 -220
150 -81 75 -164 187 -213 287 -41 85 -44 96 -30 105 25 13 48 64 43 92 -8 42
-26 66 -64 84 l-37 17 -3 208 c-3 200 -2 207 17 207 29 0 79 46 86 80 10 45
-20 98 -66 117 l-39 15 0 210 c0 115 4 207 8 204 15 -9 73 27 86 53 21 42 12
92 -24 124 -16 15 -39 27 -50 27 -19 0 -20 7 -20 209 l0 208 31 9 c95 27 98
161 5 195 l-36 13 0 208 c0 201 1 208 20 208 11 0 34 12 51 28 59 52 38 147
-37 172 l-36 12 3 102 c4 149 41 308 81 352 10 12 20 33 22 47 3 31 51 111
110 183 l41 52 51 -5 c46 -5 54 -3 85 25 29 26 34 37 34 78 l1 48 80 41 c196
104 426 140 632 100z"/>
<path d="M2992 5735 c-103 -44 -70 -195 43 -195 60 0 104 45 105 107 0 34 -5
46 -31 67 -17 14 -34 27 -37 27 -32 6 -54 4 -80 -6z"/>
<path d="M2651 5414 c-101 -71 -10 -226 104 -179 104 42 74 195 -39 195 -23 0
-52 -7 -65 -16z"/>
<path d="M3288 5407 c-32 -30 -42 -59 -34 -101 12 -65 84 -98 145 -68 103 50
71 192 -43 192 -31 0 -50 -6 -68 -23z"/>
<path d="M2334 5101 c-97 -60 -34 -208 79 -187 79 15 112 116 56 172 -35 35
-94 42 -135 15z"/>
<path d="M2984 5104 c-60 -29 -73 -112 -26 -157 92 -89 230 14 165 123 -29 49
-82 62 -139 34z"/>
<path d="M3634 5110 c-12 -5 -32 -23 -44 -40 -57 -80 24 -180 121 -151 46 14
71 47 71 95 0 44 -16 72 -52 91 -32 17 -64 18 -96 5z"/>
<path d="M2690 4803 c-78 -14 -108 -117 -51 -174 35 -34 86 -39 132 -12 97 58
33 206 -81 186z"/>
<path d="M3326 4799 c-61 -17 -91 -79 -66 -139 30 -73 142 -82 185 -16 53 81
-25 183 -119 155z"/>
<path d="M2319 4461 c-16 -16 -30 -39 -30 -50 -1 -12 -2 -27 -3 -33 -2 -17 24
-60 44 -73 52 -34 128 -18 154 34 20 38 20 55 1 96 -30 62 -116 75 -166 26z"/>
<path d="M2959 4459 c-41 -43 -40 -99 0 -140 16 -16 38 -30 48 -30 10 -1 25
-2 33 -3 8 -1 27 4 42 11 64 30 78 109 29 162 -25 26 -36 31 -76 31 -40 0 -51
-5 -76 -31z"/>
<path d="M3618 4474 c-37 -20 -56 -81 -38 -124 21 -50 58 -67 131 -61 25 2 66
49 71 81 6 37 -13 83 -43 104 -29 20 -85 20 -121 0z"/>
<path d="M2665 4167 c-75 -34 -76 -142 -3 -181 103 -56 208 69 131 154 -33 36
-84 47 -128 27z"/>
<path d="M3314 4170 c-63 -25 -82 -107 -38 -159 64 -76 184 -35 184 63 0 76
-75 125 -146 96z"/>
<path d="M2337 3852 c-58 -35 -67 -114 -18 -163 48 -47 130 -37 164 21 21 35
21 62 2 100 -26 51 -99 71 -148 42z"/>
<path d="M2983 3850 c-63 -38 -73 -109 -22 -159 62 -63 164 -30 176 56 12 89
-79 149 -154 103z"/>
<path d="M3632 3854 c-34 -14 -62 -59 -62 -100 0 -16 12 -38 34 -60 27 -27 42
-34 73 -34 89 0 138 94 85 166 -27 36 -82 49 -130 28z"/>
<path d="M2640 3520 c-35 -38 -42 -81 -19 -120 19 -30 63 -58 89 -55 8 1 23 3
33 3 29 3 77 60 77 93 0 66 -45 109 -115 109 -28 0 -44 -7 -65 -30z"/>
<path d="M3299 3535 c-34 -18 -53 -65 -45 -108 8 -41 31 -64 77 -77 71 -21
148 53 128 123 -19 68 -95 97 -160 62z"/>
<path d="M2333 3220 c-96 -63 -34 -207 80 -186 79 15 112 116 56 172 -36 35
-94 42 -136 14z"/>
<path d="M2994 3230 c-35 -14 -64 -59 -64 -100 0 -31 7 -44 35 -69 41 -35 81
-40 125 -14 69 40 66 144 -5 178 -36 17 -59 18 -91 5z"/>
<path d="M3635 3231 c-38 -16 -60 -51 -60 -96 0 -131 197 -139 209 -8 7 76
-76 134 -149 104z"/>
<path d="M2661 2909 c-63 -38 -71 -118 -16 -166 49 -43 140 -22 165 37 38 93
-64 181 -149 129z"/>
<path d="M3307 2914 c-48 -25 -70 -91 -46 -137 42 -81 167 -74 197 11 29 83
-72 167 -151 126z"/>
<path d="M2327 2590 c-61 -48 -53 -140 16 -173 62 -30 129 -1 148 64 11 35 10
45 -5 74 -30 56 -110 74 -159 35z"/>
<path d="M2984 2600 c-49 -19 -70 -102 -38 -148 31 -44 89 -60 133 -37 41 20
61 53 61 95 -1 74 -81 121 -156 90z"/>
<path d="M3611 2584 c-38 -32 -49 -80 -27 -122 40 -78 152 -75 190 5 47 99
-78 189 -163 117z"/>
<path d="M2663 2284 c-32 -16 -58 -62 -55 -98 4 -54 53 -96 113 -96 46 0 99
56 99 104 0 76 -87 126 -157 90z"/>
<path d="M3314 2290 c-63 -25 -82 -107 -38 -159 60 -71 180 -36 186 55 6 75
-77 133 -148 104z"/>
<path d="M2345 1971 c-44 -26 -58 -48 -58 -87 0 -64 66 -118 129 -106 32 6 71
47 79 83 19 84 -78 154 -150 110z"/>
<path d="M3003 1979 c-92 -27 -99 -149 -12 -188 72 -33 136 1 146 77 7 51 -14
88 -62 108 -19 8 -36 14 -37 13 -2 0 -17 -5 -35 -10z"/>
<path d="M3642 1978 c-36 -10 -72 -58 -72 -96 0 -57 60 -109 119 -104 57 5
105 68 94 125 -6 30 -59 79 -90 83 -10 1 -33 -2 -51 -8z"/>
<path d="M1392 3128 c-20 -5 -40 -21 -53 -41 -19 -31 -20 -45 -16 -457 4 -327
8 -442 20 -500 8 -41 18 -88 21 -105 13 -68 69 -224 116 -323 198 -415 566
-735 1012 -882 54 -17 103 -33 110 -34 7 -1 27 -5 43 -9 48 -11 87 -17 130
-23 22 -3 49 -7 60 -9 11 -2 37 -4 57 -4 l37 -1 -1 -265 0 -265 -274 0 c-309
0 -334 -4 -358 -62 -23 -54 -5 -108 44 -133 25 -13 121 -15 697 -15 641 0 669
1 699 19 44 27 60 77 40 124 -26 64 -41 67 -354 67 l-279 0 0 263 -1 263 32 2
c325 21 695 169 956 381 100 82 239 230 313 333 136 190 255 470 281 663 3 22
10 69 15 105 14 101 14 823 0 854 -35 77 -150 78 -192 1 -7 -13 -11 -156 -13
-420 -1 -313 -5 -419 -18 -485 -54 -296 -192 -565 -400 -778 -65 -68 -244
-212 -262 -212 -4 0 -15 -6 -23 -14 -9 -8 -54 -33 -101 -56 -47 -23 -93 -46
-103 -51 -43 -23 -248 -83 -317 -94 -136 -20 -178 -23 -310 -20 -246 6 -430
51 -643 156 -262 130 -494 348 -636 599 -66 115 -129 278 -147 376 -3 15 -7
30 -9 34 -18 29 -29 223 -31 550 -1 206 -2 383 -3 392 -2 26 -43 67 -76 77
-16 4 -45 4 -63 -1z"/>
</g>
</svg>
